# xmcd
#
# Track frame offsets:
#	150
#	13510
#	28875
#	41802
#	58240
#	72457
#	94665
#	110237
#	123885
#	138485
#	151376
#	164167
#	175629
#	186864
#	200468
#
# Disc length: 2884 seconds
#
# Revision: 1
# Processed by: cddbd v1.5.2PL0 Copyright (c) Steve Scherf et al.
# Submitted via: audiograbber 1.83.01
#
DISCID=dd0b420f
DTITLE=Ike and Tina Turner - The Essential
DYEAR=1900
DGENRE=
TTITLE0=Nutbush City Limits
TTITLE1=I Heard It To The Grapevine (Live)
TTITLE2=I Want To Take You Higher
TTITLE3=Come Together
TTITLE4=Honky Tonk Women
TTITLE5=Proud Mary
TTITLE6=River Deep - Mountain High
TTITLE7=It's Gonna Work Out Fine
TTITLE8=Sweet Rhode Island
TTITLE9=A Fool In Love
TTITLE10=I Idolize You
TTITLE11=Poor Fool
TTITLE12=Sexy Ida (Part 1)
TTITLE13=Sexy Ida (Part 2)
TTITLE14=Workin' Together
EXTD=
EXTT0=
EXTT1=
EXTT2=
EXTT3=
EXTT4=
EXTT5=
EXTT6=
EXTT7=
EXTT8=
EXTT9=
EXTT10=
EXTT11=
EXTT12=
EXTT13=
EXTT14=
PLAYORDER=
